<svg width="132" height="132" viewBox="0 0 132 132" fill="none" xmlns="http://www.w3.org/2000/svg">
<g clip-path="url(#clip0_4_27)">
<path d="M66.0005 77.6782C72.5104 77.6782 77.7877 72.4009 77.7877 65.891C77.7877 59.3811 72.5104 54.1038 66.0005 54.1038C59.4906 54.1038 54.2133 59.3811 54.2133 65.891C54.2133 72.4009 59.4906 77.6782 66.0005 77.6782Z" fill="#00D8FF"/>
<path fill-rule="evenodd" clip-rule="evenodd" d="M66.0007 41.925C81.8267 41.925 96.5286 44.1959 107.614 48.0121C120.97 52.6103 129.182 59.5799 129.182 65.8909C129.182 72.4674 120.479 79.8717 106.136 84.6238C95.2927 88.2163 81.0236 90.0918 66.0007 90.0918C50.5982 90.0918 36.0128 88.3315 25.0472 84.5843C11.1737 79.8424 2.81763 72.3422 2.81763 65.8909C2.81763 59.6311 10.6582 52.7153 23.8266 48.1242C34.9531 44.245 50.018 41.925 65.9986 41.925H66.0007Z" stroke="#00D8FF" stroke-width="5.63904"/>
<path fill-rule="evenodd" clip-rule="evenodd" d="M45.1376 53.9771C53.0441 40.2676 62.3555 28.6663 71.1994 20.9699C81.8548 11.697 91.995 8.06543 97.4618 11.2179C103.159 14.5033 105.225 25.7417 102.177 40.54C99.8742 51.7283 94.3681 65.0256 86.863 78.0396C79.1681 91.3825 70.3571 103.138 61.6337 110.763C50.5953 120.412 39.9234 123.904 34.3349 120.681C28.912 117.556 26.8383 107.307 29.4397 93.6061C31.6378 82.0297 37.1539 67.8205 45.1351 53.9769L45.1376 53.9771Z" stroke="#00D8FF" stroke-width="5.63904"/>
<path fill-rule="evenodd" clip-rule="evenodd" d="M45.1575 78.0745C37.2287 64.3806 31.8305 50.5168 29.5773 39.0112C26.8649 25.1486 28.7826 14.5496 34.2445 11.3879C39.9362 8.09286 50.7046 11.9152 62.0027 21.947C70.5449 29.5315 79.3164 40.9405 86.8434 53.9422C94.5604 67.2722 100.344 80.777 102.594 92.1425C105.441 106.525 103.137 117.514 97.5535 120.747C92.1361 123.883 82.2224 120.562 71.6515 111.466C62.72 103.78 53.1644 91.9045 45.1575 78.0743V78.0745Z" stroke="#00D8FF" stroke-width="5.63904"/>
</g>
<defs>
<clipPath id="clip0_4_27">
<rect width="132" height="132" fill="white"/>
</clipPath>
</defs>
</svg>
