<svg width="134" height="115" viewBox="0 0 134 115" fill="none" xmlns="http://www.w3.org/2000/svg">
<mask id="mask0_4_6" style="mask-type:luminance" maskUnits="userSpaceOnUse" x="0" y="0" width="134" height="115">
<path d="M133.631 0H0V114.52H133.631V0Z" fill="white"/>
</mask>
<g mask="url(#mask0_4_6)">
<path d="M128.374 88.2903C121.255 92.0139 84.3111 107.21 76.3528 111.38C68.3944 115.551 64.1323 115.433 57.908 112.457C51.6837 109.482 12.5034 93.5472 5.40295 90.1521C1.82534 88.4728 3.05176e-05 87.04 3.05176e-05 85.6983V72.1819C3.05176e-05 72.1819 51.1817 61.0749 59.4413 58.0814C67.7008 55.0879 70.5574 55.0149 77.5757 57.5886C84.594 60.1622 126.667 67.7555 133.613 70.2745V83.5992C133.613 84.9865 132.016 86.3372 128.374 88.2812V88.2903Z" fill="#A32422"/>
<path d="M128.374 74.8378C121.255 78.5431 84.3111 93.7388 76.3528 97.8367C68.3944 101.934 64.1323 101.898 57.908 98.9319C51.6837 95.9657 12.5034 80.0308 5.40294 76.6631C-1.69752 73.2954 -1.83442 70.9407 5.12914 68.221C12.0927 65.5013 51.1817 50.1961 59.4413 47.1843C67.7008 44.1725 70.5574 44.1086 77.5757 46.6915C84.594 49.2743 121.383 63.8859 128.292 66.4322C135.201 68.9785 135.52 71.0685 128.374 74.7647V74.8378Z" fill="#DC382C"/>
<path d="M128.374 66.2771C121.255 69.9916 84.3111 85.1782 76.3528 89.276C68.3944 93.3738 64.1688 93.3373 57.9445 90.3529C51.7202 87.3685 12.5034 71.5248 5.40295 68.1389C1.82534 66.4413 3.05176e-05 65.0176 3.05176e-05 63.6669V50.1961C3.05176e-05 50.1961 51.1817 39.0526 59.4413 36.059C67.7008 33.0655 70.5574 32.9834 77.5757 35.5936C84.594 38.2038 126.667 45.7241 133.613 48.2612V61.586C133.613 62.9733 132.016 64.3605 128.374 66.2771Z" fill="#A32422"/>
<path d="M128.374 52.7606C121.255 56.4843 84.3111 71.6708 76.3528 75.7687C68.3944 79.8665 64.1323 79.8391 57.908 76.8639C51.6837 73.8886 12.5034 58.0175 5.40294 54.6224C-1.69752 51.2274 -1.82529 48.9183 5.12915 46.1986C12.0836 43.4789 51.1817 28.1372 59.4413 25.2076C67.7008 22.2779 70.5574 22.0954 77.5757 24.6417C84.594 27.188 121.383 41.9274 128.292 44.4007C135.201 46.874 135.52 49.0461 128.374 52.7332V52.7606Z" fill="#DC382C"/>
<path d="M128.374 43.4333C121.255 47.1569 84.3111 62.3526 76.3528 66.4413C68.3944 70.53 64.1688 70.5026 57.9445 67.5365C51.7202 64.5704 12.5034 48.681 5.40295 45.2951C1.82534 43.6158 3.05176e-05 42.1829 3.05176e-05 40.8322V27.3158C3.05176e-05 27.3158 51.1817 16.2088 59.4413 13.2244C67.7008 10.24 70.5574 10.1487 77.5757 12.7224C84.5941 15.2961 126.649 22.8894 133.595 25.4266V38.7513C133.613 40.1568 132.016 41.5258 128.374 43.4333Z" fill="#A32422"/>
<path d="M128.374 29.9352C121.255 33.5858 84.3111 48.8728 76.3528 52.9341C68.3944 56.9954 64.1323 56.9863 57.908 54.0293C51.6837 51.0723 12.5034 35.1647 5.40294 31.7878C-1.69752 28.411 -1.83442 26.0655 5.12914 23.3458C12.0927 20.6261 51.1817 5.29346 59.4413 2.31821C67.7008 -0.657049 70.5574 -0.748314 77.5757 1.82537C84.594 4.39906 121.383 19.0289 128.292 21.5661C135.201 24.1033 135.52 26.2115 128.374 29.9078V29.9352Z" fill="#DC382C"/>
</g>
<path d="M68.9055 10.7419L77.7217 7.84882L75.3306 13.562L84.302 16.9206L72.7386 18.1253L70.1376 24.3679L65.9576 17.4043L52.5872 16.1996L62.5716 12.6037L59.569 7.07306L68.9055 10.7419Z" fill="white"/>
<path d="M69.4622 47.1843L47.8505 38.2129L78.8078 33.4579L69.4622 47.1843Z" fill="white"/>
<path d="M39.4997 20.3887C48.6263 20.3887 56.0462 23.2636 56.0462 26.7773C56.0462 30.291 48.608 33.1659 39.4997 33.1659C30.3915 33.1659 22.9442 30.291 22.9442 26.7773C22.9442 23.2636 30.3641 20.3887 39.4997 20.3887Z" fill="white"/>
<path d="M98.0009 18.6273L116.318 25.8646L98.0192 33.102L98.0009 18.6273Z" fill="#741113"/>
<path d="M98.0009 18.6273L98.0192 33.102L96.0296 33.8777L77.7217 26.6404L98.0009 18.6273Z" fill="#AC2724"/>
</svg>
